<svg xmlns="http://www.w3.org/2000/svg" width="117.33" height="116.69" viewBox="0 0 117.33 116.69">
  <title>iwit-vip</title>
  <g>
    <polygon points="58.67 5.03 70.93 0 80.09 9.59 93.34 9.98 97.81 22.46 109.75 28.21 108.76 41.42 117.33 51.53 111.05 63.21 114.77 75.93 104.28 84.03 102.5 97.17 89.63 100.31 82.66 111.59 69.62 109.22 58.67 116.69 47.72 109.22 34.67 111.59 27.71 100.31 14.83 97.17 13.05 84.03 2.56 75.93 6.29 63.21 0 51.53 8.57 41.42 7.58 28.21 19.53 22.46 23.99 9.98 37.24 9.59 46.4 0 58.67 5.03" style="fill: #0f80e0"/>
    <path d="M84.63,39.79h0a5.06,5.06,0,0,0-7.13,0L51.14,66.15,39.83,54.85a5.06,5.06,0,0,0-7.13,0h0a5.06,5.06,0,0,0,0,7.13L47.56,76.83v0h0l0,0a5.06,5.06,0,0,0,7.13,0h0a4.5,4.5,0,0,0,.56-.68L84.63,46.91A5,5,0,0,0,84.63,39.79Z" style="fill: #fff"/>
  </g>
</svg>
